:SAMPLES-PER-SECOND 30
:FULLY-SPECIFIED
:DEGREES
101
root  -5.50164 39.5781 19.6828 177.214 41.3502 -179.699
RightUpLeg  -4.73946 -5.97757 -1.89245
RightLeg  14.2515 8.59845 1.89558
RightFoot  -5.88986 -0.283763 5.11229
RightToes  -1.74624e-010 0 -3.6325e-017
Spine  0.115183 -1.10546 1.90167
Spine1  25.0016 -1.10275 1.11661
HEad  -9.14786 35.3866 -10.5682
LeftShoulder1  1.99496 -4.1918 -19.4311
LeftArm  11.3071 6.99232 -58.6802
LeftForeArm  12.6288 -77.4232 -80.2612
LeftHand  0.144995 6.13228 23.2283
RightShoulder  1.31657 2.28877 16.0621
RightArm  0.317962 -8.7412 56.2741
RightForeArm  -2.99317 38.2773 9.0244
RightHand  -1.53292 5.19269 -16.997
LeftUpLeg  -8.18803 -6.05125 5.30576
LeftLeg  27.7079 0.561735 0.657238
LeftFoot  -6.49946 0.418875 -8.98023
LeftToes  -5.82109e-011 1.10366e-010 -8.03124e-011
102
root  -5.67481 39.568 19.561 177.595 43.5937 -179.328
RightUpLeg  -5.16961 -5.50376 -1.68559
RightLeg  14.1771 10.3005 2.0458
RightFoot  -5.58858 -0.329361 5.79176
RightToes  -1.74624e-010 0 -3.6325e-017
Spine  -0.209028 -1.27958 1.43885
Spine1  25.06 -1.41183 1.32134
HEad  -9.17692 37.5189 -10.8628
LeftShoulder1  1.95712 -4.03287 -19.4785
LeftArm  10.8772 7.03987 -59.0141
LeftForeArm  12.3529 -77.4107 -79.8898
LeftHand  0.147503 6.14087 23.3334
RightShoulder  1.29873 2.23341 15.962
RightArm  -0.764447 -9.19703 56.3964
RightForeArm  -0.7067 40.4444 9.59314
RightHand  -1.51871 5.23335 -16.7776
LeftUpLeg  -6.74492 -8.30617 5.42256
LeftLeg  27.5688 0.131416 0.41139
LeftFoot  -7.95759 0.320448 -9.23198
LeftToes  -5.82109e-011 1.10366e-010 -8.03124e-011
103
root  -5.87855 39.5776 19.4357 178.033 45.7128 -178.991
RightUpLeg  -5.5694 -4.99575 -1.54928
RightLeg  13.8186 11.8727 2.10074
RightFoot  -5.12188 -0.385623 6.44674
RightToes  -1.74624e-010 0 -3.6325e-017
Spine  -0.4085 -1.50762 0.483088
Spine1  24.9401 -1.94214 1.82663
HEad  -9.36528 39.6722 -11.3435
LeftShoulder1  1.92697 -3.9095 -19.5053
LeftArm  10.5822 6.81695 -59.2142
LeftForeArm  12.0662 -77.3958 -79.4504
LeftHand  0.0850465 5.81297 24.2423
RightShoulder  1.26693 2.13696 15.7691
RightArm  -1.41032 -9.48395 56.4875
RightForeArm  0.164638 42.6988 10.3266
RightHand  -1.47883 5.10048 -16.5501
LeftUpLeg  -5.16003 -9.12246 5.26754
LeftLeg  26.2674 0.433329 0.565161
LeftFoot  -9.44044 0.210032 -9.20956
LeftToes  -5.82109e-011 1.10366e-010 -8.03124e-011
104
root  -6.10766 39.6128 19.3152 178.44 47.5777 -178.694
RightUpLeg  -5.77151 -4.48905 -1.48514
RightLeg  13.0263 13.1451 1.96839
RightFoot  -4.4565 -0.461143 7.14908
RightToes  -1.74624e-010 0 -3.6325e-017
Spine  -0.394216 -1.75815 -0.899303
Spine1  24.6906 -2.63109 2.5704
HEad  -9.79415 41.6458 -11.8724
LeftShoulder1  1.91824 -3.86501 -19.5462
LeftArm  10.4834 6.13006 -59.193
LeftForeArm  11.3604 -77.3616 -78.5693
LeftHand  -0.0131293 5.33648 25.5338
RightShoulder  1.23675 2.04992 15.5603
RightArm  -1.54061 -9.66818 56.4087
RightForeArm  -0.543899 44.8613 11.1915
RightHand  -1.44842 4.91913 -16.4921
LeftUpLeg  -3.6002 -8.35085 4.99825
LeftLeg  23.8809 1.22074 0.921322
LeftFoot  -10.7345 0.10895 -8.31261
LeftToes  -5.82109e-011 1.10366e-010 -8.03124e-011
105
root  -6.37259 39.6591 19.2082 178.783 49.0767 -178.453
RightUpLeg  -5.88422 -3.99381 -1.49253
RightLeg  12.0389 14.0538 1.66705
RightFoot  -3.71141 -0.553093 7.90201
RightToes  -1.74624e-010 0 -3.6325e-017
Spine  -0.0988544 -2.03002 -2.44215
Spine1  24.3216 -3.352 3.30242
HEad  -10.4528 43.2755 -12.2904
LeftShoulder1  1.93258 -3.94971 -19.4361
LeftArm  10.5243 4.9499 -59.0569
LeftForeArm  9.81536 -77.2908 -77.055
LeftHand  -0.0388814 5.22217 26.0538
RightShoulder  1.22412 2.02199 15.4317
RightArm  -1.30023 -9.78218 56.2277
RightForeArm  -1.32894 46.6091 11.9607
RightHand  -1.3721 4.73123 -15.9243
LeftUpLeg  -2.32627 -6.70077 4.66206
LeftLeg  21.305 2.13934 1.25011
LeftFoot  -11.5734 0.0556382 -6.5989
LeftToes  -5.82109e-011 1.10366e-010 -8.03124e-011
106
root  -6.68394 39.697 19.1157 179.096 50.2494 -178.331
RightUpLeg  -6.18229 -3.48401 -1.60566
RightLeg  11.1972 14.7096 1.30867
RightFoot  -3.01317 -0.647005 8.58957
RightToes  -1.74624e-010 0 -3.6325e-017
Spine  0.428228 -2.27017 -3.87944
Spine1  23.8257 -3.94449 3.82828
HEad  -11.2901 44.4346 -12.606
LeftShoulder1  1.95341 -4.13156 -19.0663
LeftArm  10.6588 3.34378 -58.9884
LeftForeArm  7.4471 -77.178 -75.0544
LeftHand  0.0321876 5.54413 25.5021
RightShoulder  1.2242 2.048 15.332
RightArm  -0.986201 -9.96732 56.1935
RightForeArm  -1.1068 47.76 12.4477
RightHand  -1.27779 4.58638 -15.0721
LeftUpLeg  -1.51808 -5.26244 4.22469
LeftLeg  19.2185 2.9246 1.45953
LeftFoot  -12.0191 0.0424651 -4.93882
LeftToes  -5.82109e-011 1.10366e-010 -8.03124e-011
107
root  -7.03269 39.72 19.0295 179.412 51.2831 -178.379
RightUpLeg  -6.77431 -2.9691 -1.86054
RightLeg  10.5396 15.2437 0.94272
RightFoot  -2.367 -0.741837 9.2274
RightToes  -1.74624e-010 0 -3.6325e-017
Spine  1.028 -2.38128 -5.06207
Spine1  23.2346 -4.26949 4.09225
HEad  -12.2048 45.1027 -12.8696
LeftShoulder1  1.95635 -4.29092 -18.543
LeftArm  10.8918 1.3765 -59.0933
LeftForeArm  4.66571 -77.0246 -72.7294
LeftHand  0.100367 5.86667 24.7917
RightShoulder  1.22044 2.072 15.1963
RightArm  -0.794476 -10.3923 56.4155
RightForeArm  0.126516 48.3862 12.6441
RightHand  -1.25881 4.58757 -14.851
LeftUpLeg  -1.14308 -4.36266 3.67768
LeftLeg  17.5471 3.44165 1.59519
LeftFoot  -12.2812 0.0411444 -3.93987
LeftToes  -5.82109e-011 1.10366e-010 -8.03124e-011
108
root  -7.39718 39.7387 18.9428 179.676 52.351 -178.626
RightUpLeg  -7.50866 -2.53306 -2.25977
RightLeg  9.84897 15.797 0.540251
RightFoot  -1.7078 -0.854867 9.98073
RightToes  -1.74624e-010 0 -3.6325e-017
Spine  1.54575 -2.30729 -6.00109
Spine1  22.6724 -4.27414 4.10373
HEad  -13.0832 45.3872 -13.0634
LeftShoulder1  1.9339 -4.35469 -18.0147
LeftArm  11.1796 -0.848656 -59.381
LeftForeArm  2.00506 -76.8304 -70.1365
LeftHand  0.0998362 5.8684 24.6732
RightShoulder  1.21922 2.07058 15.1197
RightArm  -0.600227 -11.0271 56.6783
RightForeArm  1.83541 48.6366 12.6356
RightHand  -1.29505 4.67118 -15.1459
LeftUpLeg  -1.07197 -3.36454 3.00421
LeftLeg  16.0713 3.55592 1.76636
LeftFoot  -12.3297 0.044874 -3.35409
LeftToes  -5.82109e-011 1.10366e-010 -8.03124e-011
109
root  -7.75983 39.7645 18.8581 179.755 53.5322 -179.096
RightUpLeg  -8.20932 -2.18025 -2.76387
RightLeg  9.03783 16.5565 0.098657
RightFoot  -1.03751 -0.987798 10.8465
RightToes  -1.74624e-010 0 -3.6325e-017
Spine  1.89957 -2.05261 -6.87017
Spine1  22.3281 -4.01104 3.96149
HEad  -13.9025 45.4318 -13.2146
LeftShoulder1  1.90436 -4.37692 -17.5344
LeftArm  11.337 -3.09032 -59.7818
LeftForeArm  -0.10184 -76.6171 -67.6134
LeftHand  0.0722655 5.73703 24.7913
RightShoulder  1.22685 2.09185 15.1813
RightArm  -0.149267 -11.6678 56.7436
RightForeArm  3.63157 48.5819 12.4787
RightHand  -1.2671 4.69161 -14.7978
LeftUpLeg  -1.21974 -2.27961 2.18368
LeftLeg  14.9387 3.78159 1.99028
LeftFoot  -12.0362 0.0549064 -2.8252
LeftToes  -5.82109e-011 1.10366e-010 -8.03124e-011
110
root  -8.11213 39.7942 18.7851 179.549 54.7831 -179.799
RightUpLeg  -8.85116 -1.77402 -3.35485
RightLeg  8.26449 17.4325 -0.326163
RightFoot  -0.428834 -1.12169 11.6749
RightToes  -1.74624e-010 0 -3.6325e-017
Spine  2.14457 -1.67296 -7.8848
Spine1  22.2331 -3.61151 3.81973
HEad  -14.6807 45.3575 -13.3725
LeftShoulder1  1.88595 -4.42602 -17.1204
LeftArm  11.1591 -5.02466 -60.161
LeftForeArm  -1.42083 -76.4537 -65.882
LeftHand  0.084738 5.8005 24.5726
RightShoulder  1.24884 2.16956 15.2768
RightArm  0.577708 -12.1815 56.6788
RightForeArm  5.30788 48.2901 12.2228
RightHand  -1.12936 4.6008 -13.345
LeftUpLeg  -1.49792 -1.40772 1.27163
LeftLeg  14.2388 4.32154 2.16278
LeftFoot  -11.492 0.0658077 -2.39439
LeftToes  -5.82109e-011 1.10366e-010 -8.03124e-011
111
root  -8.45366 39.8066 18.731 179.11 55.8809 179.362
RightUpLeg  -9.53577 -1.34376 -4.06669
RightLeg  7.84089 17.9772 -0.576614
RightFoot  -0.0189013 -1.2493 12.5556
RightToes  -1.74624e-010 0 -3.6325e-017
Spine  2.49271 -1.30746 -9.02434
Spine1  22.1496 -3.24397 3.70788
HEad  -15.3606 45.2743 -13.4386
LeftShoulder1  1.87239 -4.46516 -16.8085
LeftArm  10.6641 -6.44175 -60.3748
LeftForeArm  -1.69153 -76.4141 -65.4848
LeftHand  0.116357 5.95411 24.3646
RightShoulder  1.26911 2.25362 15.3095
RightArm  1.37486 -12.6067 56.694
RightForeArm  6.50803 47.9236 11.9714
RightHand  -0.941223 4.34101 -11.4681
LeftUpLeg  -1.87728 -0.747277 0.428676
LeftLeg  13.8873 4.79216 2.14524
LeftFoot  -11.008 0.0721854 -2.09693
LeftToes  -5.82109e-011 1.10366e-010 -8.03124e-011
